# xmcd CD database file
# Generated: Thu May 3 11:29:51 2001 by KSCD
# 
# Track frame offsets:
#       180
#       14305
#       27970
#       38998
#       50908
#       62262
#       79247
#       96211
#       107961
#       123201
#       136465
#       148656
#       162072
#       178336
#
# Disc length: 2572 seconds
#
# Revision: 3
# Processed by: cddbd v1.4b41PL1 Copyright (c) Steve Scherf et al.
# Submitted via: Kscd 1.2.7
#
DISCID=c10a0a0e
DTITLE=The Bar D Wranglers - By Request
DYEAR=1900
DGENRE=
TTITLE0=Cool Water
TTITLE1=Cowboy's Rope And Ride
TTITLE2=Cattle Call
TTITLE3=16 Tons
TTITLE4=Grandpa
TTITLE5=Home On The Range
TTITLE6=In My Colorado Home
TTITLE7=Ghost Riders
TTITLE8=Riding Down The Canyon
TTITLE9=South Of The Border
TTITLE10=Remington Ride
TTITLE11=Tumbling Tumbleweed
TTITLE12=Colorado
TTITLE13=How Great Thou Art
EXTD=The Bar D Wranglers are:\nCy Scarborough\nGary Cook\nJerry Baxter\nBob
EXTD=Minser\n\nBar D Chuckwagon - 8080 C.R. 250 - Durango, CO 81301
EXTT0=
EXTT1=
EXTT2=
EXTT3=
EXTT4=
EXTT5=
EXTT6=
EXTT7=
EXTT8=
EXTT9=
EXTT10=
EXTT11=
EXTT12=
EXTT13=
PLAYORDER=
